{"accessors":[{"bufferView":2,"componentType":5126,"count":65532,"max":[2.2047200202941895,2.25396990776062,1.7064599990844727],"min":[-2.332859992980957,-2.315769910812378,-1.0110399723052979],"type":"VEC3"},{"bufferView":2,"byteOffset":786384,"componentType":5126,"count":65532,"max":[0.9999821186065674,0.9999909400939941,0.999853789806366],"min":[-0.9998047947883606,-0.9999246597290039,-0.9998940825462341],"type":"VEC3"},{"bufferView":3,"componentType":5126,"count":65532,"max":[0.9999345541000366,0.9997144937515259,0.9999242424964905,1],"min":[-0.9998037815093994,-0.9999595284461975,-0.9999643564224243,-1],"type":"VEC4"},{"bufferView":1,"componentType":5126,"count":65532,"max":[0.9637399911880493,0.9814000129699707],"min":[0.014770000241696835,0.07169000059366226],"type":"VEC2"},{"bufferView":0,"componentType":5125,"count":87024,"max":[65531],"min":[0],"type":"SCALAR"},{"bufferView":2,"byteOffset":1572768,"componentType":5126,"count":41959,"max":[2.18326997756958,2.25396990776062,1.6509900093078613],"min":[-2.332859992980957,-2.329580068588257,-0.787310004234314],"type":"VEC3"},{"bufferView":2,"byteOffset":2076276,"componentType":5126,"count":41959,"max":[0.9999356865882874,0.9998375177383423,0.9996842741966248],"min":[-0.9999433159828186,-0.9999396204948425,-0.9998878836631775],"type":"VEC3"},{"bufferView":3,"byteOffset":1048512,"componentType":5126,"count":41959,"max":[0.999988317489624,0.9993105530738831,0.9998127818107605,1],"min":[-0.9998948574066162,-0.9996657967567444,-0.9989749789237976,-1],"type":"VEC4"},{"bufferView":1,"byteOffset":524256,"componentType":5126,"count":41959,"max":[0.9610300064086914,0.9550700187683105],"min":[0.06383000314235687,0.28352999687194824],"type":"VEC2"},{"bufferView":0,"byteOffset":348096,"componentType":5125,"count":62985,"max":[41958],"min":[0],"type":"SCALAR"}],"asset":{"extras":{"author":"overlaps (https://sketchfab.com/overlaps)","license":"CC-BY-4.0 (http://creativecommons.org/licenses/by/4.0/)","source":"https://sketchfab.com/models/91964c1ce1a34c3985b6257441efa500","title":"Space exploration [WLP series #8]"},"generator":"Sketchfab-3.18.2","version":"2.0"},"bufferViews":[{"buffer":0,"byteLength":600036,"byteOffset":0,"name":"floatBufferViews","target":34963},{"buffer":0,"byteLength":859928,"byteOffset":600036,"byteStride":8,"name":"floatBufferViews","target":34962},{"buffer":0,"byteLength":2579784,"byteOffset":1459964,"byteStride":12,"name":"floatBufferViews","target":34962},{"buffer":0,"byteLength":1719856,"byteOffset":4039748,"byteStride":16,"name":"floatBufferViews","target":34962}],"buffers":[{"byteLength":5759604,"uri":"3a46c337e0.bin"}],"images":[{"uri":"4df3fdffd6.png"},{"uri":"cce7f45acd.png"}],"materials":[{"doubleSided":true,"emissiveFactor":[1,1,1],"emissiveTexture":{"index":1,"texCoord":0},"name":"scene","pbrMetallicRoughness":{"baseColorFactor":[1,1,1,1],"baseColorTexture":{"index":0,"texCoord":0},"metallicFactor":0,"roughnessFactor":1}}],"meshes":[{"name":"planet.001","primitives":[{"attributes":{"NORMAL":1,"POSITION":0,"TANGENT":2,"TEXCOORD_0":3},"indices":4,"material":0,"mode":4}]},{"name":"planet.001","primitives":[{"attributes":{"NORMAL":6,"POSITION":5,"TANGENT":7,"TEXCOORD_0":8},"indices":9,"material":0,"mode":4}]}],"nodes":[{"children":[1],"name":"RootNode (gltf orientation matrix)","rotation":[-0.7071067811865475,0,0,0.7071067811865476]},{"children":[2],"name":"RootNode (model correction matrix)"},{"children":[3],"name":"Root"},{"children":[4,5],"matrix":[5.06314,2.90223,3.8654499999999996,0,-3.19041,6.2117700000000005,-0.48494000000000004,0,-3.6312499999999996,-1.4110099999999999,5.81576,0,-0.0032900000000000013,0.023690000000000006,-6.33114,1],"name":"planet.001"},{"mesh":0,"name":"planet.001"},{"mesh":1,"name":"planet.001"}],"samplers":[{"magFilter":9729,"minFilter":9987,"wrapS":10497,"wrapT":10497}],"scene":0,"scenes":[{"name":"OSG_Scene","nodes":[0]}],"textures":[{"sampler":0,"source":0},{"sampler":0,"source":1}]}
